<?xml version="1.0" encoding="UTF-8"?>
<svg xmlns="http://www.w3.org/2000/svg" viewBox="0 0 2048 2048">
  <g id="_手描边_x5F_手的轮廓微调" data-name="手描边_x5F_手的轮廓微调">
    <path d="M650.21,1249.48c7.78,7.64,52.13,49.91,105.93,41.36,66.46-10.55,93.41-90.05,102.9-118.04,4.73-13.96,43.13-134.12-39.35-230.02-62.49-72.66-164.2-96.3-246.16-66.59-134.05,48.59-148.16,215.55-150.32,241.12-13.83,163.7,106.31,273.14,125.1,289.54,64.47,56.27,152.63,87.03,174.53,81.72,1.67-.4,9.58-2.62,17.15,1.01,0,0,0,0,0,0,11.12,1.91,14.92,22.27,16.14,28.25,6.33,31.06-57,128.9-79.2,174.03-18.79,38.22-35.86,95.66-27.26,179.36.01.12.11.21.24.21,245.36-1.68,490.72-3.36,736.07-5.04.11,0,.2-.08.23-.18,12.96-56.28,14.57-101.34,14.08-129.96-1.17-68.2-17.8-247.55-39.35-326.87-1.29-4.76-4.77-17.13,1.01-28.25,11.64-22.39,52.55-14.5,71.63-23.2,94.64-43.17,141.63-119.45,154.36-141.24,18.21-31.18,79.61-136.27,37.33-244.15-28.53-72.79-89.34-108.79-127.12-131.15-47.54-28.14-110.87-65.63-183.61-44.39-83.36,24.34-116.87,107.64-123.08,123.08-4.74,11.79-37.29,96.04,2.02,162.43,4.09,6.91,10.37,17.31,22.2,27.24,47.85,40.18,120.71,17.27,132.95,13.19.13-.04.18-.18.14-.3l-226.88-587.87s-.02-.1,0-.15c1.7-5.85,4.8-14.15,10.76-23.06,5.36-8.02,10.28-15.37,16.53-15.2,3.13.08,6.18,2.04,15.1,14.54,6.32,8.85,11.27,16.96,15.09,23.78,0,0,0,.02.01.02l155.83,214.14c.14.2.46.08.42-.16-3.09-23.72-10.2-58.13-28.13-95.95-12.59-26.56-24.65-52.68-52.46-76.67-31.96-27.57-65.07-35.62-72.64-37.33-14.97-3.38-51.6-9.41-89.79,5.04-70.64,26.74-97,104.79-107.95,137.21-22.63,67-16.33,124.94-22.2,125.1-9.68.26,7.47-157.92-72.64-209.84-24.5-15.88-50.49-16.9-82.73-18.16-20.28-.79-96.88-3.79-147.29,48.43-3.83,3.96-11.86,12.75-22.2,30.27-15.95,27.01-42.8,83.93-40.38,176.77,0,.23.31.32.44.12l158.97-258.58s.02-.04.02-.06c1.7-5.85,4.8-14.17,10.77-23.1,5.36-8.02,10.28-15.37,16.53-15.2,3.13.08,6.18,2.04,15.1,14.54,6.12,8.58,11.11,16.64,15.1,23.79" style="fill: none; stroke: #fef2e5; stroke-linecap: round; stroke-miterlimit: 10; stroke-width: 84px;"/>
  </g>
  <g id="_填色" data-name="填色">
    <g id="_手颜色_x5F_Ctrl_x2B_J合并线框_x2B_设置填充色" data-name="手颜色_x5F_Ctrl_x2B_J合并线框_x2B_设置填充色">
      <path id="_x3C_路径_x3E_微调" d="M1386.18,1881.54c13.99-61.71,15.34-111.65,14.12-145.28-1.97-54.41-17.19-245.34-39.35-326.87-1.29-4.76-4.77-17.13,1.01-28.25,11.64-22.39,52.55-14.5,71.63-23.2,94.64-43.17,141.63-119.45,154.36-141.24,18.21-31.18,79.61-136.27,37.33-244.15-28.53-72.79-89.34-108.79-127.12-131.15-47.54-28.14-110.87-65.63-183.61-44.39-83.36,24.34-116.87,107.64-123.08,123.08-4.74,11.79-37.29,96.04,2.02,162.43,4.09,6.91,10.37,17.31,22.2,27.24,48.16,40.43,121.63,16.98,133.17,13.12l-13.12-373.28c-3.03-23.75-10.08-58.55-28.25-96.85-12.59-26.56-24.65-52.68-52.46-76.67-31.96-27.57-65.07-35.62-72.64-37.33-14.97-3.38-51.6-9.41-89.79,5.04-70.64,26.74-97,104.79-107.95,137.21-22.63,67-16.33,124.94-22.2,125.1-9.68.26,7.47-157.92-72.64-209.84-24.5-15.88-50.49-16.9-82.73-18.16-20.28-.79-96.88-3.79-147.29,48.43-3.83,3.96-11.86,12.75-22.2,30.27-15.99,27.08-42.96,84.25-40.35,177.56l52.97,415.15c7.78,7.64,52.13,49.91,105.93,41.36,66.46-10.55,93.41-90.05,102.9-118.04,4.73-13.96,43.13-134.12-39.35-230.02-62.49-72.66-164.2-96.3-246.16-66.59-134.05,48.59-148.16,215.55-150.32,241.12-13.83,163.7,106.31,273.14,125.1,289.54,64.47,56.27,152.63,87.03,174.53,81.72,1.67-.4,9.58-2.62,17.15,1.01,0,0,0,0,0,0,11.12,1.91,14.92,22.27,16.14,28.25,6.32,31.03-58.41,133.1-79.2,174.03-20.28,39.94-38.86,101.46-27.24,193.7" style="fill: #fbc109;"/>
      <path d="M994.51,1128.83c-23.44,14.4-32.85,34.37-38.08,45.89-14.98,32.98-.88,41.18-12.01,67.68-17.15,40.83-59.19,41.76-64.32,71.13-5.19,29.67,32.72,57.28,41.12,63.4,66.46,48.41,187.05,40.9,251.29-16,24.97-22.12,52.42-61.02,39.62-82.97-7.96-13.66-25.48-10.44-47.26-32.26-13.57-13.6-19.63-27.73-26.32-43.35-13.75-32.08-5.68-36.46-16.46-52.34-14.95-22.03-46.16-36.73-77.57-36.09-26.14.53-44.52,11.53-50,14.9Z" style="fill: #fbdfbf;"/>
    </g>
    <g id="_手" data-name="手">
      <path d="M650.21,1249.48c7.78,7.64,52.13,49.91,105.93,41.36,66.46-10.55,93.41-90.05,102.9-118.04,4.73-13.96,43.13-134.12-39.35-230.02-62.49-72.66-164.2-96.3-246.16-66.59-134.05,48.59-148.16,215.55-150.32,241.12-13.83,163.7,106.31,273.14,125.1,289.54,64.47,56.27,152.63,87.03,174.53,81.72,1.67-.4,9.58-2.62,17.15,1.01,0,0,0,0,0,0,11.12,1.91,14.92,22.27,16.14,28.25,6.33,31.06-57,128.9-79.2,174.03-18.81,38.25-35.89,95.76-27.24,179.58" style="fill: none; stroke: #000; stroke-linecap: round; stroke-miterlimit: 10; stroke-width: 30px;"/>
      <path d="M1348.86,1122.87c-11.54,3.87-85.02,27.32-133.17-13.12-11.82-9.93-18.1-20.33-22.2-27.24-39.31-66.38-6.76-150.64-2.02-162.43,6.21-15.44,39.72-98.74,123.08-123.08,72.74-21.24,136.07,16.25,183.61,44.39,37.77,22.36,98.59,58.36,127.12,131.15,42.28,107.87-19.12,212.97-37.33,244.15-12.73,21.79-59.72,98.08-154.36,141.24-19.08,8.7-59.99.82-71.63,23.2-5.78,11.12-2.3,23.49-1.01,28.25,21.55,79.32,38.18,258.68,39.35,326.87.49,28.66-1.13,73.78-14.12,130.14" style="fill: none; stroke: #000; stroke-linecap: round; stroke-miterlimit: 10; stroke-width: 30px;"/>
      <path d="M1348.86,1122.87c-11.54,3.87-85.02,27.32-133.17-13.12-11.82-9.93-18.1-20.33-22.2-27.24-39.31-66.38-6.76-150.64-2.02-162.43,6.21-15.44,39.72-98.74,123.08-123.08,72.74-21.24,136.07,16.25,183.61,44.39,37.77,22.36,98.59,58.36,127.12,131.15,42.28,107.87-19.12,212.97-37.33,244.15-12.73,21.79-59.72,98.08-154.36,141.24-19.08,8.7-59.99.82-71.63,23.2-5.78,11.12-2.3,23.49-1.01,28.25,21.55,79.32,38.18,258.68,39.35,326.87.49,28.66-1.13,73.78-14.12,130.14" style="fill: none; stroke: #000; stroke-linecap: round; stroke-miterlimit: 10; stroke-width: 30px;"/>
      <path d="M1335.74,756.65c-4.79-46.49-18.01-81.77-28.25-103.91-11.9-25.73-24.2-52.29-52.46-76.67-31.96-27.57-65.07-35.62-72.64-37.33-14.97-3.38-51.6-9.41-89.79,5.04-70.64,26.74-97,104.79-107.95,137.21-22.63,67-16.33,124.94-22.2,125.1-9.68.26,7.47-157.92-72.64-209.84-24.5-15.88-50.49-16.9-82.73-18.16-20.28-.79-96.88-3.79-147.29,48.43-3.83,3.96-11.86,12.75-22.2,30.27-15.99,27.08-42.96,84.25-40.35,177.56" style="fill: none; stroke: #000; stroke-linecap: round; stroke-miterlimit: 10; stroke-width: 30px;"/>
      <path d="M994.51,1128.83c-23.44,14.4-32.85,34.37-38.08,45.89-14.98,32.98-.88,41.18-12.01,67.68-17.15,40.83-59.19,41.76-64.32,71.13-5.19,29.67,32.72,57.28,41.12,63.4,66.46,48.41,187.05,40.9,251.29-16,24.97-22.12,52.42-61.02,39.62-82.97-7.96-13.66-25.48-10.44-47.26-32.26-13.57-13.6-19.63-27.73-26.32-43.35-13.75-32.08-5.68-36.46-16.46-52.34-14.95-22.03-46.16-36.73-77.57-36.09-26.14.53-44.52,11.53-50,14.9Z" style="fill: none; stroke: #000; stroke-miterlimit: 10; stroke-width: 30px;"/>
    </g>
    <g id="_指甲" data-name="指甲">
      <path d="M756.65,575.05c1.69-5.85,4.8-14.18,10.78-23.13,5.36-8.02,10.28-15.37,16.53-15.2,3.13.08,6.18,2.04,15.1,14.54,6.32,8.86,11.27,16.97,15.1,23.79" style="fill: none; stroke: #000; stroke-linecap: round; stroke-miterlimit: 10; stroke-width: 16px;"/>
      <path d="M1121.86,534.7c1.69-5.85,4.8-14.18,10.78-23.13,5.36-8.02,10.28-15.37,16.53-15.2,3.13.08,6.18,2.04,15.1,14.54,6.32,8.86,11.27,16.97,15.1,23.79" style="fill: none; stroke: #000; stroke-linecap: round; stroke-miterlimit: 10; stroke-width: 16px;"/>
    </g>
  </g>
</svg>